<svg xmlns="http://www.w3.org/2000/svg" width="128" height="128" viewBox="0 0 128 128">
  <defs>
    <linearGradient id="bg" x1="0" y1="0" x2="1" y2="1">
      <stop offset="0%" stop-color="#6C5CE7"/>
      <stop offset="100%" stop-color="#4834D4"/>
    </linearGradient>
  </defs>

  <!-- Rounded background -->
  <rect width="128" height="128" rx="24" fill="url(#bg)"/>

  <!-- Git branch line -->
  <path fill="none" stroke="#FFFFFF" stroke-width="4" stroke-linecap="round"
        d="M40 30v36c0 6 4 10 10 10h16"/>

  <!-- Git node top -->
  <circle cx="40" cy="28" r="7" fill="#FFFFFF"/>

  <!-- Git node bottom-right -->
  <circle cx="66" cy="76" r="7" fill="#FFFFFF"/>

  <!-- Pencil body -->
  <g transform="translate(2, -2)">
    <path fill="#FFC312" d="M95 28l8 8c2 2 2 5 0 7L67 79l-14 4 4-14L93 33c2-2 5-2 7-1z"/>
    <path fill="#F79F1F" d="M57 69l-4 14 14-4z"/>
    <!-- Pencil tip highlight -->
    <path fill="none" stroke="#FFFFFF" stroke-width="2" stroke-linecap="round" opacity="0.5"
          d="M72 62l18-18"/>
  </g>
</svg>
